<svg width="268" height="268" viewBox="0 0 268 268" fill="none" xmlns="http://www.w3.org/2000/svg">
<g clip-path="url(#clip0_4809_3034)">
<path d="M68.6395 135.927C61.0652 155.615 63.4767 173.585 73.2295 189.13C90.3727 216.454 125.427 215.106 153.725 207.648C205.593 193.977 210.235 171.979 202.97 161.108C214.636 147.481 202.724 136.099 195.689 133.114C205.361 120.973 192.619 106.755 183.429 106.381C191.591 88.905 173.337 76.8749 158.165 83.944C142.993 91.0126 132.09 102.313 107.983 108.635C110.676 93.5476 108.952 62.9702 80.5254 61.348C70.9232 61.8066 54.0107 76.7425 62.8989 92.0497C68.6125 101.89 75.3873 118.388 68.6395 135.927Z" fill="#CEF17B"/>
<path d="M107.983 108.635C132.09 102.313 142.993 91.0129 158.165 83.944C173.337 76.8749 191.591 88.905 183.429 106.381C192.619 106.755 205.361 120.973 195.689 133.114C202.724 136.099 214.636 147.481 202.97 161.108C210.235 171.979 205.593 193.977 153.725 207.648C125.427 215.106 90.3727 216.454 73.2295 189.13C63.4767 173.585 61.0652 155.615 68.6395 135.927C75.3873 118.388 68.6125 101.89 62.8989 92.0497C54.0107 76.7425 70.9232 61.8066 80.5254 61.348C108.953 62.9702 110.675 93.5482 107.983 108.635Z" stroke="#1A1A1A" stroke-width="1.5" stroke-linecap="round" stroke-linejoin="round"/>
<path d="M202.695 108.717C208.891 95.4503 199.865 85.3224 188.52 84.3045L172.061 82.4154C182.01 84.7126 189.103 94.2301 183.429 106.38L202.695 108.717Z" fill="white" stroke="#1A1A1A" stroke-width="1.5" stroke-linecap="round" stroke-linejoin="round"/>
<path d="M121.298 212.272C137.545 216.619 156.425 214.347 172.989 209.981C224.858 196.31 229.499 174.313 222.235 163.441L202.968 161.104C210.233 171.977 205.591 193.974 153.723 207.645C143.414 210.362 132.208 212.268 121.298 212.272Z" fill="white" stroke="#1A1A1A" stroke-width="1.5" stroke-linecap="round" stroke-linejoin="round"/>
<path d="M222.234 163.44C233.9 149.814 221.988 138.432 214.953 135.447L195.687 133.111C202.722 136.095 214.634 147.478 202.968 161.103L222.234 163.44Z" fill="white" stroke="#1A1A1A" stroke-width="1.5" stroke-linecap="round" stroke-linejoin="round"/>
<path d="M202.695 108.717C211.884 109.091 224.627 123.308 214.955 135.45L195.688 133.113C204.816 121.655 193.98 108.346 185.008 106.571L183.429 106.38C183.945 106.401 184.473 106.466 185.008 106.571L202.695 108.717Z" fill="white"/>
<path d="M185.008 106.571C193.98 108.346 204.816 121.655 195.688 133.113L214.955 135.45C224.627 123.308 211.884 109.091 202.695 108.717L185.008 106.571ZM185.008 106.571L183.429 106.38C183.945 106.401 184.473 106.466 185.008 106.571Z" stroke="#1A1A1A" stroke-width="1.5" stroke-linecap="round" stroke-linejoin="round"/>
<path d="M128.153 101.086C128.343 85.3857 122.861 65.0009 99.7919 63.6846L85.2339 61.9194C109.138 66.4867 110.518 94.4285 107.984 108.635C115.934 106.55 122.448 103.924 128.153 101.086Z" fill="white"/>
<path d="M107.984 108.635C110.518 94.4282 109.138 66.4864 85.2339 61.9191L99.792 63.6843C122.861 65.0006 128.343 85.3854 128.153 101.086C122.448 103.923 115.934 106.55 107.984 108.635Z" stroke="#1A1A1A" stroke-width="1.5" stroke-linecap="round" stroke-linejoin="round"/>
</g>
<defs>
<clipPath id="clip0_4809_3034">
<rect width="195.765" height="195.765" fill="white" transform="translate(0 98.302) rotate(-30.1418)"/>
</clipPath>
</defs>
</svg>
