<svg preserveAspectRatio="none" width="100%" height="100%" overflow="visible" viewBox="0 0 280 160" fill="none" xmlns="http://www.w3.org/2000/svg">
<!-- Blob 1: primary glow layers, recolored from purple/orange → green/lime -->
<g filter="url(#f0)">
  <g filter="url(#f1)">
    <path d="M96.46 54.57C61.76 54.57 22.79 33.87 10 46.56V104H270V17.17C260.26 13.61 232.37 7.42 198.76 11.16C156.75 15.84 131.17 54.57 96.46 54.57Z" fill="#0a3d1e"/>
  </g>
  <g filter="url(#f2)">
    <path d="M96.46 59C61.76 59 22.79 37.63 10 50.73V110H270V20.4C260.26 16.72 232.37 10.34 198.76 14.2C156.75 19.02 131.17 59 96.46 59Z" fill="#1a5c2e"/>
    <path d="M96.46 59C61.76 59 22.79 37.63 10 50.73V110H270V20.4C260.26 16.72 232.37 10.34 198.76 14.2C156.75 19.02 131.17 59 96.46 59Z" fill="#1a5c2e"/>
  </g>
  <g filter="url(#f3)">
    <path d="M96.46 71C61.76 71 22.79 49.63 10 62.73V122H270V32.4C260.26 28.72 232.37 22.34 198.76 26.2C156.75 31.02 131.17 71 96.46 71Z" fill="#4a9a3e"/>
  </g>
  <g filter="url(#f4)">
    <path d="M96.46 85C61.76 85 22.79 63.63 10 76.73V136H270V46.4C260.26 42.72 232.37 36.34 198.76 40.2C156.75 45.02 131.17 85 96.46 85Z" fill="#8BC34A"/>
  </g>
  <g filter="url(#f5)">
    <path d="M96.46 95C61.76 95 22.79 73.63 10 86.73V146H270V56.4C260.26 52.72 232.37 46.34 198.76 50.2C156.75 55.02 131.17 95 96.46 95Z" fill="#B5D95A"/>
  </g>
  <g filter="url(#f6)">
    <path d="M96.46 99C61.76 99 22.79 77.63 10 90.73V150H270V60.4C260.26 56.72 232.37 50.34 198.76 54.2C156.75 59.02 131.17 99 96.46 99Z" fill="#CEF17B"/>
  </g>
</g>
<defs>
  <filter id="f0" x="2" y="2" width="276" height="156" filterUnits="userSpaceOnUse" color-interpolation-filters="sRGB">
    <feFlood flood-opacity="0" result="bg"/><feBlend in="SourceGraphic" in2="bg" result="s"/><feGaussianBlur stdDeviation="4"/>
  </filter>
  <filter id="f1" x="0" y="0" width="280" height="114" filterUnits="userSpaceOnUse" color-interpolation-filters="sRGB">
    <feFlood flood-opacity="0" result="bg"/><feBlend in="SourceGraphic" in2="bg" result="s"/><feGaussianBlur stdDeviation="5"/>
  </filter>
  <filter id="f2" x="0" y="3" width="280" height="117" filterUnits="userSpaceOnUse" color-interpolation-filters="sRGB">
    <feFlood flood-opacity="0" result="bg"/><feBlend in="SourceGraphic" in2="bg" result="s"/><feGaussianBlur stdDeviation="5"/>
  </filter>
  <filter id="f3" x="0" y="15" width="280" height="117" filterUnits="userSpaceOnUse" color-interpolation-filters="sRGB">
    <feFlood flood-opacity="0" result="bg"/><feBlend in="SourceGraphic" in2="bg" result="s"/><feGaussianBlur stdDeviation="5"/>
  </filter>
  <filter id="f4" x="0" y="29" width="280" height="117" filterUnits="userSpaceOnUse" color-interpolation-filters="sRGB">
    <feFlood flood-opacity="0" result="bg"/><feBlend in="SourceGraphic" in2="bg" result="s"/><feGaussianBlur stdDeviation="5"/>
  </filter>
  <filter id="f5" x="0" y="39" width="280" height="117" filterUnits="userSpaceOnUse" color-interpolation-filters="sRGB">
    <feFlood flood-opacity="0" result="bg"/><feBlend in="SourceGraphic" in2="bg" result="s"/><feGaussianBlur stdDeviation="5"/>
  </filter>
  <filter id="f6" x="0" y="43" width="280" height="117" filterUnits="userSpaceOnUse" color-interpolation-filters="sRGB">
    <feFlood flood-opacity="0" result="bg"/><feBlend in="SourceGraphic" in2="bg" result="s"/><feGaussianBlur stdDeviation="5"/>
  </filter>
</defs>
</svg>
